<svg width="19" height="20" viewBox="0 0 19 20" fill="none" xmlns="http://www.w3.org/2000/svg">
<g clip-path="url(#clip0_3_232)">
<path d="M13.375 9.75H12.8125V8.0625C12.8125 6.09844 11.2141 4.5 9.25 4.5C7.28594 4.5 5.6875 6.09844 5.6875 8.0625V9.75H5.125C4.50391 9.75 4 10.2539 4 10.875V15.375C4 15.9961 4.50391 16.5 5.125 16.5H13.375C13.9961 16.5 14.5 15.9961 14.5 15.375V10.875C14.5 10.2539 13.9961 9.75 13.375 9.75ZM10.1875 13.6875C10.1875 14.2055 9.76797 14.625 9.25 14.625C8.73203 14.625 8.3125 14.2055 8.3125 13.6875V12.5625C8.3125 12.0445 8.73203 11.625 9.25 11.625C9.76797 11.625 10.1875 12.0445 10.1875 12.5625V13.6875ZM10.9375 9.75H7.5625V8.0625C7.5625 7.13203 8.31953 6.375 9.25 6.375C10.1805 6.375 10.9375 7.13203 10.9375 8.0625V9.75Z" fill="#74788D"/>
</g>
<defs>
<clipPath id="clip0_3_232">
<rect width="10.5" height="12" fill="white" transform="translate(4 4.5)"/>
</clipPath>
</defs>
</svg>
